<?xml version="1.0" encoding="UTF-8"?>
<svg version="1.1" xmlns="http://www.w3.org/2000/svg" width="512" height="512">
<path d="M0 0 C0.92220337 0.00182281 1.84440674 0.00364563 2.79455566 0.00552368 C16.841657 0.05219735 30.55997339 0.56067231 44.375 3.3125 C45.27976074 3.48942383 46.18452148 3.66634766 47.11669922 3.84863281 C53.58657431 5.14731809 59.98813627 6.65502172 66.375 8.3125 C67.62095947 8.63492676 67.62095947 8.63492676 68.89208984 8.96386719 C103.17583645 18.0563653 134.94322134 34.94908514 162.375 57.3125 C162.92575195 57.76028809 163.47650391 58.20807617 164.04394531 58.66943359 C177.40993434 69.62497503 189.7986461 81.61848954 200.375 95.3125 C201.53515625 96.74722656 201.53515625 96.74722656 202.71875 98.2109375 C238.24029381 142.83768716 256.92122501 199.14424287 256.6875 255.9375 C256.68476578 257.32080505 256.68476578 257.32080505 256.68197632 258.73205566 C256.63530265 272.779157 256.12682769 286.49747339 253.375 300.3125 C253.19807617 301.21726074 253.02115234 302.12202148 252.83886719 303.05419922 C251.54018191 309.52407431 250.03247828 315.92563627 248.375 322.3125 C248.16004883 323.14313965 247.94509766 323.9737793 247.72363281 324.82958984 C238.6311347 359.11333645 221.73841486 390.88072134 199.375 418.3125 C198.92721191 418.86325195 198.47942383 419.41400391 198.01806641 419.98144531 C187.06252497 433.34743434 175.06901046 445.7361461 161.375 456.3125 C159.94027344 457.47265625 159.94027344 457.47265625 158.4765625 458.65625 C113.84981284 494.17779381 57.54325713 512.85872501 0.75 512.625 C-0.17220337 512.62317719 -1.09440674 512.62135437 -2.04455566 512.61947632 C-16.091657 512.57280265 -29.80997339 512.06432769 -43.625 509.3125 C-44.52976074 509.13557617 -45.43452148 508.95865234 -46.36669922 508.77636719 C-52.83657431 507.47768191 -59.23813627 505.96997828 -65.625 504.3125 C-66.45563965 504.09754883 -67.2862793 503.88259766 -68.14208984 503.66113281 C-102.42583645 494.5686347 -134.19322134 477.67591486 -161.625 455.3125 C-162.17575195 454.86471191 -162.72650391 454.41692383 -163.29394531 453.95556641 C-176.65993434 443.00002497 -189.0486461 431.00651046 -199.625 417.3125 C-200.78515625 415.87777344 -200.78515625 415.87777344 -201.96875 414.4140625 C-237.49029381 369.78731284 -256.17122501 313.48075713 -255.9375 256.6875 C-255.93567719 255.76529663 -255.93385437 254.84309326 -255.93197632 253.89294434 C-255.88530265 239.845843 -255.37682769 226.12752661 -252.625 212.3125 C-252.44807617 211.40773926 -252.27115234 210.50297852 -252.08886719 209.57080078 C-250.79018191 203.10092569 -249.28247828 196.69936373 -247.625 190.3125 C-247.41004883 189.48186035 -247.19509766 188.6512207 -246.97363281 187.79541016 C-237.8811347 153.51166355 -220.98841486 121.74427866 -198.625 94.3125 C-198.17721191 93.76174805 -197.72942383 93.21099609 -197.26806641 92.64355469 C-186.31252497 79.27756566 -174.31901046 66.8888539 -160.625 56.3125 C-159.19027344 55.15234375 -159.19027344 55.15234375 -157.7265625 53.96875 C-113.09981284 18.44720619 -56.79325713 -0.23372501 0 0 Z " fill="#FEFEFE" transform="translate(255.625,-0.3125)"/>
<path d="M0 0 C1.26986252 -0.00029205 2.53972504 -0.00058411 3.84806824 -0.00088501 C7.28526408 -0.00145206 10.72231648 0.01019556 14.15947938 0.02426291 C17.76823311 0.03687992 21.37699117 0.03794932 24.98576355 0.04031372 C31.79939397 0.04649659 38.61295918 0.06286353 45.42656106 0.0830127 C53.19212273 0.10547191 60.95768774 0.11639017 68.72327387 0.12640357 C84.67908535 0.14723312 100.63480715 0.18386873 116.59057617 0.22705078 C116.59057617 18.37705078 116.59057617 36.52705078 116.59057617 55.22705078 C108.10467773 55.25283203 99.6187793 55.27861328 90.87573242 55.30517578 C84.80879984 55.33355044 78.74191993 55.36441651 72.67502308 55.39887428 C64.82062015 55.4431533 56.96633223 55.4815997 49.11181641 55.49804688 C42.89184987 55.51109019 36.6721248 55.53812259 30.45229429 55.58166385 C27.16159226 55.60421921 23.87125067 55.61787792 20.5804615 55.61893463 C16.89865222 55.62130557 13.21778013 55.64839844 9.53613281 55.68115234 C8.45575241 55.67612198 7.37537201 55.67109161 6.26225281 55.66590881 C-1.7539487 55.77593417 -7.32449747 57.81323066 -14.15942383 61.85205078 C-19.5393454 67.53085689 -21.73705086 73.42738267 -22.03442383 81.22705078 C-21.72356257 88.75316534 -19.99731504 94.81677795 -14.43676758 100.10205078 C-12.47960544 101.62388153 -10.54512334 102.97025743 -8.40942383 104.22705078 C-7.83204971 104.57464951 -7.2546756 104.92224823 -6.6598053 105.28038025 C-3.80713116 106.48041792 -1.53239256 106.49992589 1.56152344 106.5300293 C2.76700333 106.5466713 3.97248322 106.56331329 5.2144928 106.58045959 C6.51551437 106.58887375 7.81653595 106.5972879 9.15698242 106.60595703 C10.51498079 106.62215282 11.87296772 106.63933497 13.23094177 106.65745544 C16.80887482 106.70312002 20.38682416 106.73790673 23.96490479 106.76965332 C29.66586061 106.8214932 35.36664266 106.88751592 41.06739616 106.95786858 C43.04289811 106.98036949 45.01846872 106.99656357 46.99403381 107.0125885 C58.13316701 107.13499957 68.32345673 107.63899859 78.90307617 111.28955078 C79.8124292 111.60118164 80.72178223 111.9128125 81.65869141 112.23388672 C101.87302455 119.42199987 116.64712919 132.03549631 126.84057617 150.97705078 C137.46376123 173.87785135 136.25200747 201.08938725 127.77807617 224.53955078 C120.03172014 244.67575693 105.50638685 260.59100963 85.77807617 269.41455078 C72.35120382 274.94752299 59.67298392 276.3824958 45.28979492 276.34057617 C43.31294456 276.34079521 43.31294456 276.34079521 41.29615784 276.34101868 C37.70375709 276.34130416 34.11139013 276.33544788 30.51899719 276.32844472 C26.75672581 276.32216953 22.99445355 276.3216041 19.23217773 276.32041931 C12.11736891 276.31731824 5.00257555 276.30912142 -2.11222649 276.29906982 C-10.216246 276.28787059 -18.32026628 276.28238865 -26.42429161 276.27737439 C-43.08601282 276.26693772 -59.74771273 276.24860753 -76.40942383 276.22705078 C-76.40942383 258.07705078 -76.40942383 239.92705078 -76.40942383 221.22705078 C-67.71856445 221.20126953 -59.02770508 221.17548828 -50.07348633 221.14892578 C-43.85749806 221.12054856 -37.64156111 221.08968153 -31.42560768 221.05522728 C-23.37968508 221.01096042 -15.33387453 220.97250854 -7.2878418 220.95605469 C-0.9158816 220.94300541 5.45584314 220.91595789 11.82767069 220.87243772 C15.19830732 220.84989587 18.56865434 220.83413567 21.93937302 220.83516693 C25.71197302 220.83279373 29.48366126 220.80568249 33.25610352 220.77294922 C34.36094086 220.77797958 35.4657782 220.78300995 36.60409546 220.78819275 C46.74473284 220.65256997 54.57230846 217.9599061 61.96948242 210.94970703 C67.28335185 205.30292048 69.11127175 198.25975747 68.90307617 190.62158203 C67.70094908 181.41028316 62.78937092 174.53248494 55.65307617 168.91455078 C47.94354278 164.66644055 40.61064502 164.94680125 31.97729492 164.95361328 C30.64035591 164.94503041 29.30342536 164.93502335 27.96650696 164.92367554 C22.32878807 164.87785054 16.69112173 164.85289016 11.05322266 164.84619141 C-27.12946862 164.78025355 -27.12946862 164.78025355 -43.22192383 156.60205078 C-43.9122168 156.26286621 -44.60250977 155.92368164 -45.3137207 155.57421875 C-63.36539043 146.34419833 -77.03906137 131.23023141 -83.78442383 112.03955078 C-90.91377018 89.81864416 -89.36042901 64.76977158 -79.59692383 43.66455078 C-76.51563823 37.97969828 -72.60115215 33.12305734 -68.40942383 28.22705078 C-67.75973633 27.38658203 -67.11004883 26.54611328 -66.44067383 25.68017578 C-50.42428273 6.33730345 -23.89515026 -0.14699767 0 0 Z " fill="#232323" transform="translate(228.409423828125,112.77294921875)"/>
</svg>
